# xmcd CD database file
#
# Track frame offsets:
#	150
#	114290
#	163195
#
# Disc length: 3026 seconds
#
# Revision: 0
# Processed by: cddbd v1.5.2PL0 Copyright (c) Steve Scherf et al.
# Submitted via: CDex 1.70beta2
#
DISCID=1c0bd003
DTITLE=Terry Oldfiels - Spirit of Africa
DYEAR=1993
DGENRE=New Age
TTITLE0=The march of the thousand days
TTITLE1=Ancestral futures
TTITLE2=The long way home
EXTD=YEAR: 1993
EXTT0=
EXTT1=
EXTT2=
PLAYORDER=
